<?xml version="1.0" standalone="no"?>
<!DOCTYPE svg PUBLIC "-//W3C//DTD SVG 20010904//EN"
 "http://www.w3.org/TR/2001/REC-SVG-20010904/DTD/svg10.dtd">
<svg version="1.0" xmlns="http://www.w3.org/2000/svg"
 width="128.000000pt" height="128.000000pt" viewBox="0 0 128.000000 128.000000"
 preserveAspectRatio="xMidYMid meet">

<g transform="translate(0.000000,128.000000) scale(0.100000,-0.100000)"
fill="#000000" stroke="none">
<path d="M548 1237 c-161 -82 -293 -207 -386 -364 -103 -171 -142 -316 -142
-519 l0 -126 35 -32 c19 -17 70 -51 114 -74 302 -161 640 -161 942 0 44 23 96
57 115 75 l36 33 -5 152 c-3 116 -10 172 -26 233 -74 264 -252 491 -483 614
-108 57 -105 57 -200 8z m166 -91 c78 -44 150 -106 138 -118 -5 -5 -28 -4 -56
3 -63 16 -169 6 -230 -20 -27 -12 -47 -23 -45 -25 2 -2 30 1 62 6 173 30 383
-88 495 -278 65 -110 84 -180 89 -324 l5 -125 -69 -41 c-79 -48 -157 -79 -172
-69 -7 4 4 24 30 53 55 61 87 133 94 207 5 60 5 60 -9 24 -39 -101 -114 -189
-200 -238 -101 -58 -178 -76 -316 -75 -110 0 -135 3 -205 28 -44 15 -110 46
-147 69 l-68 42 1 105 c1 58 4 116 8 129 11 42 30 36 42 -14 16 -64 78 -154
133 -193 59 -43 66 -40 23 8 -71 77 -100 162 -98 285 1 170 61 306 190 436 80
79 194 158 230 159 8 0 42 -15 75 -34z"/>
<path d="M499 760 c-58 -15 -141 -54 -176 -84 -29 -24 -33 -34 -33 -75 0 -76
27 -140 84 -196 60 -60 121 -91 205 -104 212 -34 411 111 411 300 0 43 -4 51
-37 78 -20 17 -66 43 -102 57 -57 24 -82 28 -191 30 -69 2 -141 -1 -161 -6z
m207 -39 c57 -26 87 -72 92 -140 3 -46 0 -62 -20 -91 -37 -54 -83 -80 -142
-80 -101 0 -178 90 -160 187 l6 33 25 -20 c33 -26 63 -25 91 0 28 26 28 71 1
96 -19 17 -19 19 -2 25 31 13 66 9 109 -10z"/>
</g>
</svg>
